<svg xmlns="http://www.w3.org/2000/svg" viewBox="0 0 48 48" width="48px" height="48px">
  <path fill="#0277bd" d="M24,4C13,4,4,13,4,24s9,20,20,20s20-9,20-20S35,4,24,4z"/>
  <path fill="#fff" d="M33.7,26.3c-0.4,1.2-1.2,2.1-2.3,2.8c-1.2,0.7-2.5,1-4.1,1c-1.5,0-2.8-0.3-3.9-0.8 c-1.1-0.5-2-1.3-2.6-2.3c-0.6-1-0.9-2.1-0.9-3.4c0-1.3,0.3-2.4,0.9-3.4c0.6-1,1.5-1.8,2.6-2.3c1.1-0.5,2.4-0.8,3.9-0.8 c1.5,0,2.9,0.3,4.1,1c1.2,0.7,2,1.6,2.3,2.8l-3.8,0.8c-0.2-0.5-0.5-0.9-1-1.2c-0.5-0.3-1.1-0.4-1.7-0.4c-1,0-1.8,0.3-2.4,1 c-0.6,0.7-0.9,1.6-0.9,2.8c0,1.2,0.3,2.1,0.9,2.8c0.6,0.7,1.4,1,2.4,1c0.7,0,1.2-0.1,1.7-0.4c0.5-0.3,0.8-0.7,1-1.2L33.7,26.3z"/>
</svg> 